<svg width="900" height="900" viewBox="0 0 900 900" fill="none" xmlns="http://www.w3.org/2000/svg">
<g clip-path="url(#clip0_1_44)">
<path d="M900 0H0V900H900V0Z" fill="url(#paint0_radial_1_44)"/>
<path d="M478.525 535.121H523.729V549.711H463.781V354.073H478.564V535.121H478.525Z" fill="white"/>
<path d="M406.975 535.16V337L334.843 486.58L318.585 463.532L290.298 515.682L290.26 515.72C276.601 536.091 254.873 545.016 232.251 545.016C181.46 545.016 150.224 504.856 150.224 458.798C150.224 412.78 181.188 372.581 232.251 372.581C257.356 372.581 277.145 385.696 285.526 398.539L302.249 386.278C288.591 367.032 260.964 355.043 231.941 355.043C173.079 355.043 129 398.85 129 458.837C129 518.824 172.264 562.631 231.941 562.631C263.176 562.631 283.275 549.633 294.683 538.691C300.736 532.871 305.625 525.964 309.311 518.436L322.969 490.499L339.305 511.491L392.191 399.703V549.788H454.779V535.16H406.975Z" fill="white"/>
<path d="M590.235 547.809H573.977V389.731H590.235V547.809Z" fill="white"/>
<path d="M672.106 547.809H655.771V370.02H610.839V354.112H720.143V370.02H672.145V547.809H672.106Z" fill="white"/>
<path d="M582.125 373.163C587.397 373.163 591.671 368.89 591.671 363.618C591.671 358.346 587.397 354.073 582.125 354.073C576.854 354.073 572.58 358.346 572.58 363.618C572.58 368.89 576.854 373.163 582.125 373.163Z" fill="white"/>
<path d="M760.341 547.809C753.706 547.809 749.128 542.416 749.128 536.596C749.128 530.775 753.706 525.382 760.341 525.382C766.976 525.382 771.555 530.775 771.555 536.596C771.555 542.416 767.015 547.809 760.341 547.809ZM768.994 514.44H751.689V354.073H768.994V514.44Z" fill="white"/>
<path d="M323.047 490.422L306.013 524.528C301.473 533.569 292.821 540.437 292.821 540.437C271.014 560.071 244.125 561.894 244.125 561.894V544.162C275.282 540.67 290.337 515.72 290.337 515.72L318.624 463.571L323.047 490.422Z" fill="url(#paint1_linear_1_44)"/>
<path d="M318.585 463.571L323.047 490.422L339.344 511.413L334.843 486.619L318.585 463.571Z" fill="#B11F24"/>
<path d="M339.344 511.413L392.23 399.626L406.975 337L334.843 486.619L339.344 511.413Z" fill="#208F44"/>
<path d="M406.975 337V535.16H392.23V399.626L406.975 337Z" fill="url(#paint2_linear_1_44)"/>
</g>
<defs>
<radialGradient id="paint0_radial_1_44" cx="0" cy="0" r="1" gradientUnits="userSpaceOnUse" gradientTransform="translate(450 450) rotate(90) scale(450)">
<stop offset="0.567708"/>
<stop offset="1" stop-opacity="0"/>
</radialGradient>
<linearGradient id="paint1_linear_1_44" x1="314.253" y1="497.211" x2="248.307" y2="539.055" gradientUnits="userSpaceOnUse">
<stop stop-color="#208F44"/>
<stop offset="0.9911" stop-color="white"/>
</linearGradient>
<linearGradient id="paint2_linear_1_44" x1="400.754" y1="388.049" x2="398.745" y2="526.636" gradientUnits="userSpaceOnUse">
<stop stop-color="#B11F24"/>
<stop offset="0.9955" stop-color="white"/>
</linearGradient>
<clipPath id="clip0_1_44">
<rect width="900" height="900" rx="450" fill="white"/>
</clipPath>
</defs>
</svg>
